<svg xmlns="http://www.w3.org/2000/svg" viewBox="0 0 349.74 92.43"><title>CoinGecko logo</title><path d="M481.7,502.08c-1-3.71-3.35-6.42-8-6.42-6.92,0-9.81,6.1-9.81,12.29s2.89,12.3,9.81,12.3c5,0,7.78-3.75,8.23-8.45h5.52c-.45,7.73-5.92,13.06-13.73,13.06-9.68,0-15.46-7.69-15.46-16.91S464,491,473.65,491c7.28,0,13,4.07,13.7,11Z" transform="translate(-337.13 -465.78)" style="fill:#4c4c4c"/><path d="M490.74,512.37c0-7.14,4.29-12.29,11.8-12.29s11.8,5.15,11.8,12.29-4.29,12.34-11.8,12.34S490.74,519.56,490.74,512.37Zm18.44,0c0-4-2-8.23-6.64-8.23s-6.64,4.2-6.64,8.23,2,8.28,6.64,8.28S509.18,516.44,509.18,512.37Z" transform="translate(-337.13 -465.78)" style="fill:#4c4c4c"/><path d="M518.77,491.8h5.15v4.88h-5.15Zm0,8.91h5.15v23.37h-5.15Z" transform="translate(-337.13 -465.78)" style="fill:#4c4c4c"/><path d="M529.53,500.71h4.88v3.44l.09.09a8.37,8.37,0,0,1,7.28-4.16c5.06,0,8.27,2.71,8.27,8v16.05H544.9V509.39c-.09-3.66-1.54-5.24-4.56-5.24-3.44,0-5.65,2.71-5.65,6.15v13.79h-5.15Z" transform="translate(-337.13 -465.78)" style="fill:#4c4c4c"/><path d="M584.37,524.08h-3.62l-.86-3.8c-3,3.44-5.79,4.56-9.71,4.56-9.67,0-15.47-7.7-15.47-16.91S560.51,491,570.18,491c7,0,13,3.75,13.83,11h-5.52c-.54-4.25-4.25-6.42-8.32-6.42-6.92,0-9.81,6.1-9.81,12.29s2.89,12.3,9.81,12.3c5.78.09,8.95-3.39,9-8.86h-8.59v-4.29h13.73Z" transform="translate(-337.13 -465.78)" style="fill:#4c4c4c"/><path d="M593.82,513.73c0,3.66,2,6.92,6.28,6.92,3,0,4.79-1.31,5.69-3.89h4.89c-1.13,5.11-5.47,8-10.58,8-7.32,0-11.44-5.11-11.44-12.3,0-6.65,4.35-12.34,11.3-12.34,7.37,0,11.89,6.64,11,13.65Zm12-3.39c-.18-3.26-2.4-6.19-5.88-6.19a6.11,6.11,0,0,0-6.15,6.19Z" transform="translate(-337.13 -465.78)" style="fill:#4c4c4c"/><path d="M630.71,508.53c-.41-2.85-2.49-4.38-5.34-4.38-2.68,0-6.42,1.4-6.42,8.5,0,3.89,1.72,8,6.19,8,3,0,5.06-2,5.56-5.34h5.15c-1,6.06-4.69,9.4-10.72,9.4-7.32,0-11.35-5.2-11.35-12.07,0-7.05,3.84-12.57,11.53-12.57,5.43,0,10,2.71,10.54,8.45Z" transform="translate(-337.13 -465.78)" style="fill:#4c4c4c"/><path d="M640.22,491.8h5.15v18.36l9.31-9.45H661l-9,8.59,9.81,14.79h-6.3l-7.14-11.35-3.07,3v8.37h-5.14Z" transform="translate(-337.13 -465.78)" style="fill:#4c4c4c"/><path d="M663.27,512.37c0-7.14,4.29-12.29,11.8-12.29s11.8,5.15,11.8,12.29-4.3,12.34-11.8,12.34S663.27,519.56,663.27,512.37Zm18.45,0c0-4-2-8.23-6.65-8.23s-6.64,4.2-6.64,8.23,2,8.28,6.64,8.28S681.71,516.44,681.71,512.37Z" transform="translate(-337.13 -465.78)" style="fill:#4c4c4c"/><path d="M429.57,511.8a46.22,46.22,0,1,1-46.42-46h0A46.22,46.22,0,0,1,429.57,511.8Z" transform="translate(-337.13 -465.78)" style="fill:#8dc63f"/><path d="M426.1,511.81a42.74,42.74,0,1,1-42.94-42.55h0A42.75,42.75,0,0,1,426.1,511.81Z" transform="translate(-337.13 -465.78)" style="fill:#f9e988"/><path d="M384.14,472a23.5,23.5,0,0,1,8.22,0,25,25,0,0,1,7.85,2.63,45.59,45.59,0,0,1,6.64,4.86c2.1,1.7,4.18,3.45,6.17,5.36a31.27,31.27,0,0,1,5.26,6.36,36.19,36.19,0,0,1,3.68,7.42A33.79,33.79,0,0,1,423.47,515h-.26a75,75,0,0,0-4-15.28,59.61,59.61,0,0,0-3.16-7.12,69.93,69.93,0,0,0-4.16-6.67,24.21,24.21,0,0,0-5.57-5.63,32.47,32.47,0,0,0-7.08-3.5c-2.41-1-4.81-1.94-7.33-2.66s-5.08-1.27-7.75-1.79Z" transform="translate(-337.13 -465.78)" style="fill:#fff"/><path d="M405,496.73c-3.1-.9-6.32-2.17-9.57-3.46a6.55,6.55,0,0,0-2.37-3.08c-2.13-1.85-6.12-1.8-9.57-1a23.9,23.9,0,0,0-11.19-.33c-29.56,8.14-12.8,28-23.65,48,1.54,3.28,18.19,22.39,42.27,17.26,0,0-8.24-19.79,10.35-29.29C416.36,517.08,427.25,502.78,405,496.73Z" transform="translate(-337.13 -465.78)" style="fill:#8bc53f"/><path d="M408.68,509.72a1.79,1.79,0,1,1-1.8-1.78A1.79,1.79,0,0,1,408.68,509.72Z" transform="translate(-337.13 -465.78)" style="fill:#fff"/><path d="M383.51,489.2c2.15.15,9.94,2.68,11.95,4.06-1.67-4.86-7.31-5.5-11.95-4.06Z" transform="translate(-337.13 -465.78)" style="fill:#009345"/><path d="M385.56,501.48a8.27,8.27,0,1,1-8.27-8.26h0a8.26,8.26,0,0,1,8.27,8.26Z" transform="translate(-337.13 -465.78)" style="fill:#fff"/><path d="M383.11,501.55a5.81,5.81,0,1,1-5.81-5.81h0A5.81,5.81,0,0,1,383.11,501.55Z" transform="translate(-337.13 -465.78)" style="fill:#58595b"/><path d="M415.38,513.37c-6.7,4.72-14.31,8.3-25.12,8.3-5.06,0-6.08-5.36-9.42-2.74-1.72,1.36-7.81,4.4-12.63,4.17s-12.65-3.06-14.83-13.36c-.86,10.3-1.31,17.89-5.17,26.59,7.7,12.33,26.07,21.85,42.74,17.75-1.79-12.51,9.14-24.76,15.3-31,2.34-2.37,6.8-6.25,9.14-9.68Z" transform="translate(-337.13 -465.78)" style="fill:#8bc53f"/><path d="M415.11,513.67a30,30,0,0,1-7.07,4.54,45,45,0,0,1-7.94,2.89,24.93,24.93,0,0,1-8.47,1,11.59,11.59,0,0,1-7.75-3.41l.09-.1a14.77,14.77,0,0,0,7.74,2.13,36.36,36.36,0,0,0,8.14-.67,44.32,44.32,0,0,0,7.91-2.44,29.43,29.43,0,0,0,7.26-4Z" transform="translate(-337.13 -465.78)" style="fill:#58595b"/></svg>