<?xml version="1.0" ?><svg height="512" id="svg8" version="1.1" viewBox="0 0 135.46666 135.46667" width="512" xmlns="http://www.w3.org/2000/svg" xmlns:cc="http://creativecommons.org/ns#" xmlns:dc="http://purl.org/dc/elements/1.1/" xmlns:inkscape="http://www.inkscape.org/namespaces/inkscape" xmlns:rdf="http://www.w3.org/1999/02/22-rdf-syntax-ns#" xmlns:sodipodi="http://sodipodi.sourceforge.net/DTD/sodipodi-0.dtd" xmlns:svg="http://www.w3.org/2000/svg"><defs id="defs2"/><g id="layer1"><circle cx="67.73333" cy="67.73333" id="path848" r="67.667191" style="fill:#78c4d4;stroke:none;stroke-width:1.05833332;stroke-linecap:round;stroke-linejoin:round;stroke-miterlimit:4;stroke-dasharray:none;stroke-opacity:1;fill-opacity:1"/><path d="m 25.167668,94.259957 c 0,0 13.723626,2.63419 25.637747,-7.056664 -1.772711,-0.116232 -12.669266,-1.089512 -16.318151,-12.234236 0.985324,0.264599 4.388067,0.981697 7.95709,-0.171542 -1.610111,-0.388861 -13.411761,-3.567089 -14.074632,-17.492536 0.642403,0.341678 4.971674,2.296494 7.924138,2.16512 -1.009695,-0.627943 -12.488151,-9.254852 -5.37809,-23.347476 0.517367,1.060858 13.540142,17.796944 36.053617,18.280994 -0.117614,-0.647505 -2.743163,-13.448094 8.72596,-19.395303 11.469122,-5.947209 21.227109,3.447341 21.227109,3.447341 0,0 8.008224,-1.831765 10.980384,-4.295129 -0.24836,0.831459 -1.95817,6.380043 -7.51627,9.709206 0.88185,-0.09225 7.17914,-1.19302 9.86289,-2.768823 -0.4543,0.686298 -3.67959,5.628021 -8.66999,9.122511 3.14099,14.427559 -19.186739,73.6368 -76.411802,44.036537 z" id="path932" style="fill:#ffffff;stroke:none;stroke-width:1.05833332;stroke-linecap:butt;stroke-linejoin:miter;stroke-opacity:1;stroke-miterlimit:4;stroke-dasharray:none"/></g></svg>